<?xml version="1.0" encoding="utf-8"?>
<!-- Generator: Adobe Illustrator 15.0.2, SVG Export Plug-In . SVG Version: 6.00 Build 0)  -->
<!DOCTYPE svg PUBLIC "-//W3C//DTD SVG 1.1//EN" "http://www.w3.org/Graphics/SVG/1.1/DTD/svg11.dtd">
<svg version="1.1" id="Calque_1" xmlns="http://www.w3.org/2000/svg" xmlns:xlink="http://www.w3.org/1999/xlink" x="0px" y="0px"
	 width="370px" height="64px" viewBox="0 0 370 64" style="enable-background:new 0 0 370 64;" xml:space="preserve">
<style type="text/css">
<![CDATA[
	.st0{fill:#FFEB00;}
]]>
</style>
<g>
	<path d="M68.2,29.5c1.5,0.7,3.3,1,5.1,1c3.9,0,7.8-2,10.7-5.4l0,0l-2.9-3.1l0,0l0,0c-2.2,2.6-5.1,4.1-7.8,4.1
		c-3.1,0-5.4-1.7-6.6-4.6c0,0,0,0,0,0c-0.5-1.3-0.8-2.8-0.8-4.6c0-5.7,2.7-9.1,7.2-9.1c3.7,0,6.2,3.6,7.1,6.1l0,0h3.2V4.2h-4v1.2
		l-0.8,0.3c-1.1-1.2-3.4-2.1-5.4-2.1c-3.6,0-6.7,1.4-8.9,3.9c-2.1,2.4-3.2,5.8-3.2,9.6c0,3.7,1.2,7.1,3.3,9.6
		C65.5,27.9,66.8,28.9,68.2,29.5z M63.8,25.9C63.8,25.9,63.8,25.9,63.8,25.9C63.8,25.9,63.8,25.9,63.8,25.9z M63.2,25
		c0-0.1-0.1-0.1-0.1-0.2C63.1,24.9,63.2,24.9,63.2,25z M62.6,23.9c0-0.1-0.1-0.1-0.1-0.2C62.5,23.8,62.6,23.8,62.6,23.9z M62.1,22.6
		C62.1,22.6,62,22.6,62.1,22.6C62,22.6,62.1,22.6,62.1,22.6z"/>
	<path d="M94.9,30.6c3,0,5.8-1,7.9-2.9c2-1.9,3.2-4.5,3.2-7.3s-1.1-5.4-3.2-7.3c-2-1.9-4.8-2.9-7.9-2.9s-5.8,1-7.9,2.9
		c-2,1.9-3.2,4.5-3.2,7.3s1.1,5.4,3.2,7.3C89.1,29.5,91.9,30.6,94.9,30.6z M94.9,14.4c3.7,0,6.2,2.5,6.2,6s-2.6,6-6.2,6
		c-3.7,0-6.2-2.5-6.2-6S91.2,14.4,94.9,14.4z"/>
	<path d="M109,16.4v6.9c0,2.2,0.8,4.1,2.2,5.4c1.3,1.2,3.3,1.9,5.4,1.9c1.4,0,2.8-0.4,4.1-1.1c0.9-0.6,1.8-1.3,2.6-2.2v2.7h7.8v-4
		H129l-1.6-1.6V10.8h-7.8v4h2.1l1.6,1.6v5.9c-1.5,2.9-3.6,4.2-6.5,4.2c-3.1,0-3.7-2-3.7-4.9V10.8h-7.8v4h2.1L109,16.4z"/>
	<path d="M149.8,25.9h-7.1l-1.6-1.6v-4.1c3.5-4.1,6-6.3,8.9-6.3c0.9,0,1.6,0.2,2,0.5c0.2,0.2,0.3,0.3,0.4,0.5
		c-0.1,0-0.4-0.1-0.5-0.1c-1.6,0-2.7,1-2.7,2.5c0,1,0.3,1.8,1,2.4c0.6,0.5,1.4,0.7,2.4,0.7c1.5,0,2.4-0.8,2.9-1.4c0.6-0.8,1-1.9,1-3
		c0-1.5-0.6-2.9-1.5-4c-1.2-1.3-2.9-1.9-5-1.9c-3,0-6,1.8-8.8,5.3v-4.7h-8.6v4h2.9l1.6,1.6v7.9l-1.6,1.6h-2.9v4h17.3V25.9z
		 M155.1,12.5C155.1,12.5,155.1,12.5,155.1,12.5C155.1,12.5,155.1,12.5,155.1,12.5z M155.4,12.9C155.4,12.9,155.5,12.9,155.4,12.9
		C155.5,12.9,155.4,12.9,155.4,12.9z"/>
	<path d="M174.8,25.9h-7.1l-1.6-1.6v-4.1c3.5-4.1,6-6.3,8.9-6.3c0.9,0,1.6,0.2,2,0.5c0.2,0.2,0.3,0.3,0.4,0.5
		c-0.1,0-0.4-0.1-0.5-0.1c-1.6,0-2.7,1-2.7,2.5c0,1,0.3,1.8,1,2.4c0.6,0.5,1.4,0.7,2.4,0.7c1.5,0,2.4-0.8,2.9-1.4c0.6-0.8,1-1.9,1-3
		c0-1.5-0.6-2.9-1.5-4c-1.2-1.3-2.9-1.9-5-1.9c-3,0-6,1.8-8.8,5.3v-4.7h-8.6v4h2.9l1.6,1.6v7.9l-1.6,1.6h-2.9v4h17.3V25.9z
		 M180.1,12.5C180.1,12.5,180.1,12.5,180.1,12.5C180.1,12.5,180.1,12.5,180.1,12.5z M180.4,12.9C180.4,12.9,180.4,12.9,180.4,12.9
		C180.4,12.9,180.4,12.9,180.4,12.9z"/>
	<polygon points="202.6,25.9 196.8,25.9 195.2,24.3 195.2,10.8 182.4,10.8 182.4,14.8 189.5,14.8 191.1,16.4 191.1,24.3 189.5,25.9 
		182.4,25.9 182.4,29.9 202.6,29.9 	"/>
	<path d="M192.3,7.7c1.1,0,2.1-0.4,2.8-1.1c0.7-0.7,1.1-1.7,1.1-2.7c0-1.1-0.4-2.1-1.1-2.8c-0.7-0.7-1.7-1.1-2.8-1.1
		c-1,0-2,0.4-2.7,1.1c-0.7,0.7-1.1,1.7-1.1,2.8C188.5,6.1,190.2,7.7,192.3,7.7z"/>
	<path d="M208.5,29.8c1.4,0.5,3,0.8,4.7,0.8c1.7,0,3.3-0.3,4.9-0.9c1.7-0.6,3.3-1.6,5-2.9l0,0l-2.3-2.9l0,0l0,0
		c-2.6,1.9-4.9,2.8-7.6,2.8c-3.6,0-6.2-1.7-6.9-4.6h17.5v0c0-3.1-1-5.9-2.7-8.1c-2-2.4-4.9-3.7-8.4-3.7c-6.2,0-10.9,4.4-10.9,10.2
		c0,2.8,1.1,5.4,3.2,7.3C205.9,28.6,207.2,29.3,208.5,29.8z M206.3,18.6c0.7-2.7,3.2-4.4,6.3-4.4c3.3,0,5.2,2.2,5.9,4.3l0,0.2H206.3
		z"/>
	<path d="M242.4,25.9h-7.1l-1.6-1.6v-4.1c3.5-4.1,6-6.3,8.9-6.3c0.9,0,1.6,0.2,2,0.5c0.2,0.2,0.3,0.3,0.4,0.5
		c-0.1,0-0.4-0.1-0.5-0.1c-1.6,0-2.7,1-2.7,2.5c0,1,0.3,1.8,1,2.4c0.6,0.5,1.4,0.7,2.4,0.7c1.5,0,2.4-0.8,2.9-1.4c0.6-0.8,1-1.9,1-3
		c0-1.5-0.6-2.9-1.5-4c-1.2-1.3-2.9-1.9-5-1.9c-3,0-6,1.8-8.8,5.3v-4.7h-8.6v4h2.9l1.6,1.6v7.9l-1.6,1.6h-2.9v4h17.3V25.9z
		 M247.7,12.5C247.8,12.5,247.8,12.5,247.7,12.5C247.8,12.5,247.8,12.5,247.7,12.5z M248.1,12.9C248.1,12.9,248.1,12.9,248.1,12.9
		C248.1,12.9,248.1,12.9,248.1,12.9z"/>
</g>
<g>
	<path d="M68.4,34.5c-0.7,0.7-1.1,1.7-1.1,2.8c0,2.1,1.7,3.8,3.8,3.8c1.1,0,2.1-0.4,2.8-1.1c0.7-0.7,1.1-1.7,1.1-2.7
		c0-1.1-0.4-2.1-1.1-2.8c-0.7-0.7-1.7-1.1-2.8-1.1C70,33.4,69.1,33.8,68.4,34.5z"/>
	<path d="M102.9,57.8v-6.9c0-2.2-0.8-4-2.2-5.4c-1.4-1.2-3.2-1.9-5.3-1.9c-3.4,0-5.7,2.1-6.7,3.3v-2.7h-7.8v4h2.1l1.6,1.6v7.9
		l-1.6,1.6h-1.6h-0.5h-5.2l-1.6-1.6V44.2H61.1v4h7.1l1.6,1.6v7.9l-1.6,1.6h-7.1v4h19.7h0.5h10.9v-4h-2.1l-1.6-1.6v-5.9
		c1.5-2.9,3.6-4.2,6.5-4.2c1.5,0,2.6,0.5,3.1,1.6c0.5,0.9,0.6,2.2,0.6,3.3v5.2l-1.6,1.6h-2.1v4h11.5v-4h-2.1L102.9,57.8z"/>
	<path d="M125.4,56L125.4,56c-2.3,2.5-3.9,3.8-6.7,3.8c-1.6,0-2.7-0.5-3.5-1.4c-0.7-0.9-1-2.2-1-3.9v-4.7l1.6-1.6h8.3v-4h-9.9v-6.9
		h-4.3v6.9h-5.6v4h4l1.6,1.6v5.3c0,3,0.8,5.3,2.3,6.8c1.5,1.4,3.6,2.1,6.4,2.1c1.8,0,3.6-0.5,5.3-1.5c1.6-0.9,3-2.3,4.1-3.8l0,0
		L125.4,56L125.4,56z"/>
	<path d="M139.5,43.6c-6.2,0-10.9,4.4-10.9,10.2c0,2.8,1.1,5.4,3.2,7.3c1,0.9,2.2,1.7,3.6,2.2c1.4,0.5,3,0.8,4.7,0.8
		s3.3-0.3,4.9-0.9c1.7-0.6,3.3-1.6,5-2.9l0,0l-2.3-2.9l0,0l0,0c-2.6,1.9-4.9,2.8-7.6,2.8c-3.6,0-6.2-1.7-6.9-4.6h17.5v0
		c0-3.1-1-5.9-2.7-8.1C145.9,44.9,143,43.6,139.5,43.6z M139.5,47.6c3.3,0,5.2,2.2,5.9,4.3l0,0.2h-12.3
		C133.9,49.3,136.4,47.6,139.5,47.6z"/>
	<path d="M170.2,43.6c-3,0-6,1.8-8.8,5.3v-4.7h-8.6v4h2.9l1.6,1.6v7.9l-1.6,1.6h-2.9v4h17.3v-4H163l-1.6-1.6v-4.1
		c3.5-4.1,6-6.3,8.9-6.3c0.9,0,1.6,0.2,2,0.5c0.2,0.2,0.3,0.3,0.4,0.4c-0.1,0-0.4-0.1-0.5-0.1c-1.6,0-2.7,1-2.7,2.5
		c0,1,0.3,1.8,1,2.4c0.6,0.5,1.4,0.7,2.4,0.7c1.5,0,2.4-0.8,2.9-1.4c0.6-0.8,1-1.9,1-3c0-1.5-0.6-2.9-1.5-4
		C174,44.3,172.3,43.6,170.2,43.6z M175.5,45.9C175.5,45.9,175.5,45.9,175.5,45.9C175.5,45.9,175.5,45.9,175.5,45.9z M175.8,46.3
		C175.8,46.4,175.8,46.4,175.8,46.3C175.8,46.4,175.8,46.4,175.8,46.3z"/>
	<path d="M200,57.8v-6.9c0-2.2-0.8-4-2.2-5.4c-1.4-1.2-3.2-1.9-5.3-1.9c-3.4,0-5.7,2.1-6.7,3.3v-2.7h-7.8v4h2.1l1.6,1.6v7.9
		l-1.6,1.6h-2.1v4h11.5v-4h-2.1l-1.6-1.6v-5.9c1.5-2.9,3.6-4.2,6.5-4.2c1.5,0,2.5,0.5,3.1,1.6c0.5,0.9,0.6,2.2,0.6,3.3v5.2l-1.6,1.6
		h-2.1v4h11.5v-4h-2.1L200,57.8z"/>
	<path d="M228.5,58.3l-0.3,0.2c-1.1,0.9-1.7,1.3-2.3,1.3c-0.9,0-1.1-0.6-1.1-1.4v-7.8c0-2-0.8-3.7-2.3-5c-1.6-1.3-3.9-2-6.7-2
		c-2.5,0-4.9,0.5-6.6,1.4c-2.1,1-3.2,2.6-3.2,4.5c0,1.8,1.3,3.1,3.2,3.1c1.8,0,3-1.1,3-2.6c0-1.5-0.9-2.1-1.4-2.3
		c1.2-0.4,2-0.5,4.1-0.5c3.2,0,5.4,1.3,5.4,3.3v0.2l-9.9,3c-1.8,0.5-3,1.1-3.9,1.9c-1,0.9-1.5,2-1.5,3.4c0,1.6,0.6,3,1.8,3.9
		c1.1,0.9,2.7,1.3,4.7,1.3c3.7,0,7.1-2.3,8.9-3.6c0.2,1,0.7,1.8,1.4,2.4c0,0,0,0,0,0c0.1,0.1,0.2,0.2,0.3,0.3
		c0.8,0.6,1.8,0.9,2.8,0.9c1.9,0,3.2-0.6,5.5-2.7l0,0L228.5,58.3L228.5,58.3z M220.6,53.7v2.8c-2.1,1.7-5.3,3.7-8.2,3.7
		c-1.5,0-2.3-0.6-2.3-1.7c0-1,1-1.5,1.6-1.6L220.6,53.7z M224.3,47.7C224.3,47.7,224.3,47.7,224.3,47.7
		C224.3,47.7,224.3,47.7,224.3,47.7z M223.9,47.1C223.9,47.1,223.9,47.1,223.9,47.1C223.9,47.1,223.9,47.1,223.9,47.1z M223.5,46.6
		C223.5,46.5,223.5,46.5,223.5,46.6C223.5,46.5,223.5,46.5,223.5,46.6z M223,46C223,46,223,46,223,46S223,46,223,46z"/>
	<path d="M249.2,56L249.2,56c-2.3,2.5-3.9,3.8-6.7,3.8c-1.6,0-2.7-0.5-3.5-1.4c-0.7-0.9-1-2.2-1-3.9v-4.7l1.6-1.6h8.3v-4h-9.9v-6.9
		h-4.3v6.9h-5.6v4h4l1.6,1.6v5.3c0,3,0.8,5.3,2.3,6.8c1.5,1.4,3.6,2.1,6.4,2.1c1.8,0,3.6-0.5,5.3-1.5c1.6-0.9,3-2.3,4.1-3.8l0,0
		L249.2,56L249.2,56z"/>
	<polygon points="266.4,57.8 266.4,44.2 253.6,44.2 253.6,48.2 260.7,48.2 262.3,49.8 262.3,57.8 260.7,59.4 253.6,59.4 253.6,63.4 
		273.8,63.4 273.8,59.4 268,59.4 	"/>
	<path d="M263.5,41.2c1.1,0,2.1-0.4,2.8-1.1c0.7-0.7,1.1-1.7,1.1-2.7c0-1.1-0.4-2.1-1.1-2.8c-0.7-0.7-1.7-1.1-2.8-1.1
		c-1,0-2,0.4-2.7,1.1c-0.7,0.7-1.1,1.7-1.1,2.8C259.7,39.5,261.4,41.2,263.5,41.2z"/>
	<path d="M285.5,43.6c-3,0-5.8,1-7.9,2.9c-2,1.9-3.2,4.5-3.2,7.3c0,2.8,1.1,5.4,3.2,7.3c2,1.9,4.8,2.9,7.9,2.9c3,0,5.8-1,7.9-2.9
		c2-1.9,3.2-4.5,3.2-7.3c0-2.8-1.1-5.4-3.2-7.3C291.3,44.6,288.5,43.6,285.5,43.6z M285.5,59.8c-3.7,0-6.2-2.5-6.2-6
		c0-3.5,2.6-6,6.2-6c3.7,0,6.2,2.5,6.2,6C291.7,57.3,289.1,59.8,285.5,59.8z"/>
	<path d="M319.4,57.8v-6.9c0-2.2-0.8-4-2.2-5.4c-1.4-1.2-3.2-1.9-5.3-1.9c-3.4,0-5.7,2.1-6.7,3.3v-2.7h-7.8v4h2.1l1.6,1.6v7.9
		l-1.6,1.6h-2.1v4h11.5v-4h-2.1l-1.6-1.6v-5.9c1.5-2.9,3.6-4.2,6.5-4.2c1.5,0,2.6,0.5,3.1,1.6c0.5,0.9,0.6,2.2,0.6,3.3v5.2l-1.6,1.6
		h-2.1v4h11.5v-4H321L319.4,57.8z"/>
	<path d="M347,58.3l-0.3,0.2c-1.1,0.9-1.7,1.3-2.3,1.3c-0.9,0-1.1-0.6-1.1-1.4v-7.8c0-2-0.8-3.7-2.3-5c-1.6-1.3-3.9-2-6.7-2
		c-2.5,0-4.9,0.5-6.6,1.4c-2.1,1-3.2,2.6-3.2,4.5c0,1.8,1.3,3.1,3.2,3.1c1.8,0,3-1.1,3-2.6c0-1.5-0.9-2.1-1.4-2.3
		c1.2-0.4,2-0.5,4.1-0.5c3.2,0,5.4,1.3,5.4,3.3v0.2l-9.9,3c-1.8,0.5-3,1.1-3.9,1.9c-1,0.9-1.5,2-1.5,3.4c0,1.6,0.6,3,1.8,3.9
		c1.1,0.9,2.7,1.3,4.7,1.3c3.7,0,7.1-2.3,8.9-3.6c0.2,1,0.7,1.8,1.4,2.4c0,0,0,0,0,0c0.1,0.1,0.2,0.2,0.3,0.3
		c0.8,0.6,1.8,0.9,2.8,0.9c1.9,0,3.2-0.6,5.5-2.7l0,0L347,58.3L347,58.3z M339.1,53.7v2.8c-2.1,1.7-5.3,3.7-8.2,3.7
		c-1.5,0-2.3-0.6-2.3-1.7c0-1,1-1.5,1.6-1.6L339.1,53.7z M342,46.5C342,46.5,342,46.5,342,46.5C342,46.5,342,46.5,342,46.5z
		 M342.4,47.1C342.4,47.1,342.4,47.1,342.4,47.1C342.4,47.1,342.4,47.1,342.4,47.1z M342.7,47.7C342.7,47.7,342.8,47.7,342.7,47.7
		C342.8,47.7,342.7,47.7,342.7,47.7z"/>
	<polygon points="364.2,59.4 362.6,57.8 362.6,35.7 349.8,35.7 349.8,39.7 356.9,39.7 358.5,41.3 358.5,57.8 356.9,59.4 349.8,59.4 
		349.8,63.4 370,63.4 370,59.4 	"/>
</g>
<path class="st0" d="M1.1,34c0-15.3,12.4-27.8,27.8-27.8c15.3,0,27.8,12.4,27.8,27.8c0,15.3-12.4,27.8-27.8,27.8
	C13.5,61.8,1.1,49.4,1.1,34"/>
<path d="M50.4,32.6l-2.8,2.6c-0.2,0.2-0.4,0.3-0.7,0.3c-0.3,0-0.4-0.2-0.5-0.4l-2.7-3.7c-0.2-0.2-0.4-0.4-0.5-0.3
	c-0.4,0.3-0.3,0.5-0.2,0.7l3.2,4.3c0.2,0.2,0.3,0.3,0.6,0.3c0.2,0,0.3,0,0.4-0.1l1.4-0.7c0.1-0.1,0.3,0,0.4,0
	c0.2,0.1,0.3,0.3,0.2,0.5c-0.2,0.8-0.4,1.3-0.8,2c-0.4,0.6-0.6,0.9-1.2,1.4l-0.3,0.3c-0.3,0.2-0.5,0.4-0.6,0.8
	c-0.1,0.2-0.1,0.3-0.1,0.6l0.2,1.6c0,0.2,0,0.4-0.1,0.6c-0.1,0.2-0.2,0.2-0.4,0.3L45.2,44c-0.2,0.1-0.3,0.2-0.4,0.5
	c-0.1,0.2-0.1,0.3-0.1,0.5l0.1,0.5c-2.6,4.8-1.9,6.6-5.3,6.6c-1.1,0-1.9-3.2-2.3-4.8l-0.4-2c-0.1-0.1-0.1-0.2,0-0.4
	c0-0.1,0.1-0.2,0.2-0.2c0.3-0.1,0.4-0.3,0.4-0.6c0-0.2,0-0.3-0.2-0.5l-1.4-1.6c-0.2-0.2-0.3-0.3-0.4-0.5c-0.1-0.2-0.1-0.2-0.1-0.4
	v-0.9c0-0.4-0.2-0.7-0.5-1c-0.3-0.3-0.6-0.4-1-0.4L31,39c-0.4,0-0.6,0-1-0.2c-0.3-0.1-0.4-0.2-0.6-0.4l-1.8-2.3
	c-0.1-0.2-0.2-0.3-0.3-0.4c-0.1-0.2-0.1-0.3-0.1-0.5l-0.1-1.5c0-0.3,0-0.5,0.2-0.8c0.1-0.2,0.1-0.2,0.3-0.4l2.8-2.6
	c0.2-0.1,0.3-0.2,0.5-0.3c0.3-0.1,0.4-0.1,0.7-0.1h4.5c0.1,0,0.2,0.1,0.2,0.2c0,0.1,0,0.1,0,0.2l-0.1,0.4c0,0.1,0,0.2,0.1,0.3
	c0,0,0.1,0,0.1,0c0.3,0,0.4,0,0.7,0c0.1,0,0.2,0.1,0.3,0.1l1.1,0.7c0.1,0.1,0.2,0.1,0.3,0c0.1-0.1,0.1-0.1,0.1-0.2
	c0-0.1,0-0.1,0.1-0.2c0-0.1,0.1-0.1,0.1-0.2l0.4-0.3c0.1-0.1,0.1-0.1,0.3-0.1c0.1,0,0.1,0,0.2,0.1l0.7,0.4c0.2,0.1,0.4,0.2,0.7,0.2
	c0.1,0,0.2,0,0.3,0l1.1-0.2c0.2,0,0.3-0.1,0.4-0.3c0-0.1,0.1-0.1,0.1-0.2l0-1.3c0-0.1-0.1-0.2-0.2-0.2c-0.1,0-0.2,0.1-0.3,0.2
	c0,0.2-0.3,0.1-0.4,0.1c-0.1,0-0.3,0-0.4,0l-0.3,0c-0.1,0-0.1,0-0.2,0c-0.1,0-0.1,0-0.2-0.1l-0.3-0.4c-0.1-0.1-0.1-0.1-0.1-0.2
	c0-0.1,0-0.2,0.1-0.2l1.3-0.9c0.1-0.1,0.2-0.1,0.3-0.2c0.1,0,0.2-0.1,0.3-0.1l0.9,0c0.2,0,0.4-0.2,0.3-0.4c0-0.1-0.1-0.1-0.2-0.2
	l-1-0.6c-0.1-0.1-0.1-0.1-0.2-0.1c-0.1,0-0.1,0-0.1,0.1L42.8,26c-0.1,0.1-0.1,0.1-0.2,0.2c-0.1,0-0.2,0-0.3,0c-0.2-0.1-0.3,0-0.5,0
	c-0.2,0.1-0.3,0.3-0.3,0.5V27c0,0.2,0,0.3-0.1,0.4c-0.1,0.1-0.1,0.2-0.3,0.2c-0.3,0.2-0.4,0.3-0.6,0.5c-0.1,0.1-0.2,0.1-0.2,0.2
	l0,0.6c0,0.2-0.1,0.2-0.3,0.2c-0.1,0-0.1-0.2-0.3-0.3l-0.4-0.4c-0.1-0.1-0.2-0.2-0.2-0.3c-0.1-0.2,0.1-0.4-0.1-0.6l-1-1
	c-0.2-0.2-0.4,0-0.5,0.1c0,0.1,0,0.1,0,0.2l0.9,1c0.1,0.1,0.1,0.1,0.1,0.2c0,0.1-0.1,0.2-0.1,0.3c0,0.1,0.1,0.1,0.1,0.2
	c0,0.1,0,0.2-0.1,0.3l-0.5,0.4c-0.1,0.1-0.2,0.1-0.2,0c0-0.1,0-0.1,0-0.1c0.1-0.1,0.2-0.1,0.2-0.3c0,0,0-0.1-0.1-0.1L36.6,27
	c-0.1-0.1-0.1-0.1-0.2-0.1c-0.1,0-0.2-0.1-0.3-0.1l-0.7,0.1c-0.2,0-0.3,0.1-0.4,0.2c0,0.1,0,0.1,0,0.2c0,0.1,0,0.2-0.1,0.4
	c-0.1,0.1-0.2,0.1-0.4,0.1c-0.1,0-0.3,0.1-0.3,0.2c0,0.1,0,0.1,0,0.2c0.1,0.2,0,0.3-0.2,0.4c-0.1,0.1-0.1,0.1-0.2,0.1l-1.2,0.4
	c-0.1,0-0.2,0-0.3,0c-0.1,0-0.1,0-0.2-0.1l-0.8-0.7c0,0-0.1-0.1-0.1-0.1c0-0.1,0-0.1,0-0.2l0.5-1.5c0-0.1,0.1-0.1,0.2-0.1
	c0.1,0,0.2-0.1,0.3,0l1.5,0.2c0.1,0,0.1,0,0.2,0c0.1,0,0.1,0,0.1-0.1l0.1-0.4c0-0.1,0-0.2,0-0.3c0-0.1-0.1-0.1-0.1-0.1l-0.3-0.1
	c-0.1,0-0.1-0.2-0.1-0.3c0-0.1,0.1-0.1,0.2-0.1l0.4,0c0.1,0,0.1,0,0.2,0c0.1,0,0.1,0,0.2-0.1l1.9-1.2c0.1,0,0.2-0.1,0.2-0.2
	c0-0.1,0-0.1,0-0.2V23c0-0.1,0.2-0.2,0.3-0.1c0.1,0,0.2,0.1,0.2,0.2v0.5c0,0.1,0,0.1,0,0.2c0,0,0.1,0,0.1,0.1l0.7,0.2
	c0,0,0.1,0,0.1,0c0.1,0,0.1,0,0.2-0.1c0.1-0.1,0.1-0.2,0.2-0.3c0.1-0.1,0.2-0.1,0.3-0.2c0.1,0,0.2-0.1,0.3-0.2
	c0.1-0.1,0.1-0.2,0-0.3c0-0.1,0-0.2,0.1-0.3c0.1-0.1,0.1-0.1,0.3-0.2c0.1,0,0.1,0,0.2-0.1c0-0.1,0-0.1,0-0.2v-0.2c0-0.1,0-0.1,0-0.2
	c0-0.1,0.1-0.1,0.2-0.1l0.8-0.3c0.1,0,0.1-0.1,0.1-0.2c0-0.1-0.1-0.1-0.2-0.1l-0.7,0.2c-0.1,0-0.1,0.1-0.2,0s-0.1-0.1-0.1-0.1
	l0.2-1.1c0-0.1-0.1-0.3-0.3-0.3c-0.1,0-0.2,0.1-0.2,0.2L39,21c0,0.2,0,0.3-0.1,0.5c-0.1,0.1-0.2,0.1-0.3,0.3
	c-0.1,0.1-0.1,0.1-0.1,0.2v0.7c0,0.1,0,0.1,0,0.2c0,0.1-0.1,0.1-0.1,0.2l-0.2,0.2c-0.1,0.1-0.1,0.1-0.2,0.1c-0.1,0-0.1-0.1-0.2-0.2
	l-0.3-0.8c0-0.1-0.1-0.1-0.1-0.1c-0.1,0-0.1,0-0.1,0l-0.3,0.3c-0.1,0.1-0.1,0.1-0.2,0c-0.1,0-0.2-0.1-0.2-0.2v-0.6
	c0-0.1,0-0.2,0-0.3c0-0.1,0-0.2,0.1-0.3l1.7-2.1c0.1-0.1,0.2-0.1,0.3-0.2c0.1,0,0.1,0,0.2,0h1.3c0.1,0,0.2,0,0.3,0
	c0.1,0,0.2,0,0.3,0.1l0.4,0.4c0.1,0.1,0.2,0.2,0.4,0.3c0.2,0,0.3,0,0.4-0.1l0.3-0.3c0.2-0.1,0.2-0.2,0.3-0.4c0-0.1,0-0.2-0.1-0.3
	l-1.5-1.7c-0.1-0.2-0.1-0.4,0.1-0.5c0.2-0.1,0.4-0.1,0.5,0l1,1.1l0.3,0.3c0.4,0.4,0.9,0.5,1.3,0.2c0.4-0.3,0.3-0.9-0.1-1.3l-1.3-1.2
	c-0.2-0.2-0.2-0.4-0.1-0.7c0.1-0.1,0.1-0.2,0.2-0.3l0.5-0.4c4.7,3.7,8,8.9,9.2,15l-5,0c-0.2,0-0.4,0.1-0.5,0.3
	c-0.1,0.2-0.2,0.4-0.1,0.6l0.4,0.8c0.1,0.1,0.2,0.2,0.3,0.3c0.2,0.1,0.4,0,0.5-0.1l0.8-0.6c0.1-0.1,0.2-0.1,0.4-0.1
	c0.2,0,0.3,0,0.4,0.1l0.6,0.6c0.3,0.3,0.4,0.5,0.4,0.9C50.7,32.1,50.7,32.3,50.4,32.6 M23.8,16.2c-0.1-0.2-0.1-0.4,0.1-0.6l1.2-1.3
	c0.2-0.1,0.4-0.2,0.6-0.2c0.2,0,0.3,0,0.5,0.1c0.2,0.1,0.3,0.1,0.6,0c0.3-0.1,0.4-0.2,0.6-0.4l0.8-1.6c0.1-0.3-0.1-0.4-0.2-0.6
	c-0.2-0.2-0.2-0.3-0.6-0.3h-1.3c-0.2,0-0.3,0-0.4,0.1c-0.2,0.1-0.2,0.2-0.3,0.3l-0.9,1.4c-0.1,0.2-0.3,0.3-0.5,0.4
	c-0.3,0.1-0.5,0.2-0.8,0.1h-0.7c-0.2,0-0.2,0-0.4,0.1c-0.2,0.1-0.3,0.2-0.4,0.5l-1.6,3.6c-0.1,0.2-0.2,0.3-0.4,0.4
	c-0.3,0.2-0.5,0.2-0.8,0.3h-0.7c-0.2,0-0.4,0-0.6-0.2c-0.1-0.1-0.2-0.2-0.3-0.4l-2.6-5.5c3.8-2.3,8.3-3.6,13-3.6c0.3,0,0.6,0,0.9,0
	l-0.2,0.9c-0.1,0.2,0,0.3,0,0.4c0,0.1,0,0.3,0.2,0.3l2.3,0.6c0.2,0.1,0.4,0.2,0.5,0.4c0.1,0.2,0.1,0.4,0,0.6l-1.7,2.6
	c-0.2,0.2-0.3,0.3-0.6,0.4c-0.2,0.1-0.3,0.1-0.4,0.1c-0.1,0-0.2,0-0.3,0c-0.2,0.1-0.4,0.2-0.5,0.5c-0.1,0.2-0.1,0.2-0.3,0.3
	c-0.1,0.1-0.2,0.1-0.3,0.1l-3.1,0.3C24.1,16.6,23.9,16.5,23.8,16.2 M23.5,40.1L23.5,40.1c0,0.3-0.1,0.9-0.3,1.2l-1.6,3.3
	c-0.1,0.3-0.5,0.7-0.7,1l-5.1,6.2c-0.2,0.2-0.2,0.4,0.2,0.4h0.6c0.3,0,0.6,0.2,0.6,0.5c0,0.3-0.3,0.5-0.6,0.5h-2.5
	c-0.3,0-0.6-0.3-0.6-0.6v-7.9c0-0.3,0.3-0.6,0.6-0.6h0.7c0.3,0,0.6-0.3,0.6-0.6v-0.7c0-0.3-0.3-0.6-0.6-0.6h-0.7
	c-0.3,0-0.6-0.3-0.6-0.6v-3.8c0-0.3-0.3-0.6-0.6-0.6h-1c-0.3,0-0.8-0.2-1.1-0.4l-3.3-2.3c-0.3-0.2-0.6-0.6-0.8-0.9L5.2,31
	c-0.2-0.3-0.6-0.5-0.9-0.5H3.5c-0.2,0-0.5-0.1-0.7-0.3c1.1-6.8,4.8-12.6,10.1-16.5v3.9c0,0.3,0.2,0.8,0.5,1l1.1,0.8
	c0.3,0.2,0.8,0.4,1.1,0.4h0.9c0.3,0,0.6,0.2,0.6,0.5c0,0.3-0.2,0.7-0.4,0.9l-1.3,1.4c-0.2,0.2-0.1,0.4,0.2,0.4l0.9,0
	c0.3,0,0.6,0.3,0.6,0.6l0,2.2c0,0.3,0.3,0.6,0.6,0.6h1c0.3,0,0.6,0.2,0.6,0.5c0,0.3-0.3,0.5-0.6,0.5h-3c-0.3,0-0.8,0.2-1.1,0.4
	l-1.2,0.9c-0.3,0.2-0.5,0.6-0.5,1v3.6c0,0.3-0.3,0.6-0.6,0.6h-0.2c-0.3,0-0.6-0.3-0.6-0.6V31c0-0.3-0.3-0.6-0.6-0.6H9.2
	c-0.3,0-0.6,0.3-0.6,0.6l0,1.7c0,0.3,0.2,0.8,0.5,1l2.4,1.9c0.3,0.2,0.7,0.4,1.1,0.4l4,0c0.3,0,0.9,0.1,1.1,0.3l5.2,2.7
	c0.3,0.2,0.5,0.6,0.5,0.9V40.1z M32.8,19.2l0.8,0c0.3,0,0.2,0.4,0.1,0.5c-0.1,0.1-0.2,0.1-0.3,0.1L33,19.7c0,0-0.1,0-0.1,0
	c0,0-0.1,0-0.1,0h-0.1c-0.2,0-0.2-0.1-0.2-0.2C32.5,19.3,32.6,19.2,32.8,19.2 M33.8,23.5c0,0,0,0.1-0.1,0.1l-0.6,0.5
	c0,0-0.1,0-0.1,0c-0.1,0-0.1-0.1-0.1-0.1l-0.1-0.3c0,0,0-0.1,0-0.1c0-0.1,0-0.1,0.1-0.1l0.5-0.5c0.1,0,0.1-0.1,0.2,0
	c0,0,0.1,0,0.1,0.1l0.1,0.3C33.8,23.3,33.8,23.4,33.8,23.5 M34.3,23.6l-0.4-0.9c0-0.1-0.1-0.1-0.1-0.2c0-0.1,0-0.2,0.1-0.2l0.6-0.5
	c0.1-0.1,0.1-0.1,0.2,0c0,0,0,0,0.1,0.1l0.1,0.4c0,0,0,0.1,0,0.1c0,0,0,0.1-0.1,0.1c-0.1,0-0.1,0.1-0.1,0.1c0,0.1,0,0.2,0.1,0.2
	l0.4,0.7c0.1,0.1,0.1,0.1,0.1,0.2c0,0.1-0.1,0.2-0.2,0.2l-0.5,0.4c-0.1,0-0.1,0-0.2,0c-0.1,0-0.1,0-0.1-0.1l-0.2-0.3
	c0-0.1,0-0.1,0-0.2c0-0.1,0.1-0.1,0.2-0.1h0.2c0,0,0.1,0,0.1-0.1C34.3,23.7,34.3,23.7,34.3,23.6 M37.8,16c0-0.1,0-0.1,0.1-0.1
	l0.7-0.5c0.1,0,0.1,0,0.2,0c0,0,0,0.1,0,0.1l-0.2,0.2c-0.1,0.1-0.1,0.1,0,0.2c0,0.1,0.1,0.1,0.2,0.1c0.2-0.1,0.2,0.1,0.2,0.2
	c0,0.1,0,0.1-0.1,0.2l-0.4,0.3c0,0-0.1,0-0.1,0c0,0-0.1,0-0.1-0.1l-0.4-0.5C37.8,16.1,37.8,16.1,37.8,16 M27.8,6.2
	C12.4,6.2,0,18.7,0,34c0,15.3,12.4,27.8,27.8,27.8c15.3,0,27.8-12.4,27.8-27.8C55.6,18.7,43.1,6.2,27.8,6.2"/>
</svg>
